G04 #@! TF.GenerationSoftware,KiCad,Pcbnew,(5.1.4-0)*
G04 #@! TF.CreationDate,2019-09-27T20:11:36-04:00*
G04 #@! TF.ProjectId,Pi_HAT_MACHINECLIENT,50695f48-4154-45f4-9d41-4348494e4543,rev?*
G04 #@! TF.SameCoordinates,Original*
G04 #@! TF.FileFunction,Legend,Bot*
G04 #@! TF.FilePolarity,Positive*
%FSLAX46Y46*%
G04 Gerber Fmt 4.6, Leading zero omitted, Abs format (unit mm)*
G04 Created by KiCad (PCBNEW (5.1.4-0)) date 2019-09-27 20:11:36*
%MOMM*%
%LPD*%
G04 APERTURE LIST*
%ADD10C,0.187500*%
%ADD11C,0.010000*%
%ADD12C,0.120000*%
%ADD13C,0.150000*%
G04 APERTURE END LIST*
D10*
X55620000Y-20839821D02*
X55620000Y-19339821D01*
X55120000Y-20411250D01*
X54620000Y-19339821D01*
X54620000Y-20839821D01*
X53977142Y-20768392D02*
X53762857Y-20839821D01*
X53405714Y-20839821D01*
X53262857Y-20768392D01*
X53191428Y-20696964D01*
X53120000Y-20554107D01*
X53120000Y-20411250D01*
X53191428Y-20268392D01*
X53262857Y-20196964D01*
X53405714Y-20125535D01*
X53691428Y-20054107D01*
X53834285Y-19982678D01*
X53905714Y-19911250D01*
X53977142Y-19768392D01*
X53977142Y-19625535D01*
X53905714Y-19482678D01*
X53834285Y-19411250D01*
X53691428Y-19339821D01*
X53334285Y-19339821D01*
X53120000Y-19411250D01*
X52691428Y-19339821D02*
X51834285Y-19339821D01*
X52262857Y-20839821D02*
X52262857Y-19339821D01*
X51334285Y-20839821D02*
X51334285Y-19339821D01*
X50477142Y-20839821D02*
X51120000Y-19982678D01*
X50477142Y-19339821D02*
X51334285Y-20196964D01*
X48691428Y-20839821D02*
X48691428Y-19339821D01*
X48191428Y-20411250D01*
X47691428Y-19339821D01*
X47691428Y-20839821D01*
X46334285Y-20839821D02*
X46334285Y-20054107D01*
X46405714Y-19911250D01*
X46548571Y-19839821D01*
X46834285Y-19839821D01*
X46977142Y-19911250D01*
X46334285Y-20768392D02*
X46477142Y-20839821D01*
X46834285Y-20839821D01*
X46977142Y-20768392D01*
X47048571Y-20625535D01*
X47048571Y-20482678D01*
X46977142Y-20339821D01*
X46834285Y-20268392D01*
X46477142Y-20268392D01*
X46334285Y-20196964D01*
X44977142Y-20768392D02*
X45120000Y-20839821D01*
X45405714Y-20839821D01*
X45548571Y-20768392D01*
X45620000Y-20696964D01*
X45691428Y-20554107D01*
X45691428Y-20125535D01*
X45620000Y-19982678D01*
X45548571Y-19911250D01*
X45405714Y-19839821D01*
X45120000Y-19839821D01*
X44977142Y-19911250D01*
X44334285Y-20839821D02*
X44334285Y-19339821D01*
X43691428Y-20839821D02*
X43691428Y-20054107D01*
X43762857Y-19911250D01*
X43905714Y-19839821D01*
X44120000Y-19839821D01*
X44262857Y-19911250D01*
X44334285Y-19982678D01*
X42977142Y-20839821D02*
X42977142Y-19839821D01*
X42977142Y-19339821D02*
X43048571Y-19411250D01*
X42977142Y-19482678D01*
X42905714Y-19411250D01*
X42977142Y-19339821D01*
X42977142Y-19482678D01*
X42262857Y-19839821D02*
X42262857Y-20839821D01*
X42262857Y-19982678D02*
X42191428Y-19911250D01*
X42048571Y-19839821D01*
X41834285Y-19839821D01*
X41691428Y-19911250D01*
X41620000Y-20054107D01*
X41620000Y-20839821D01*
X40334285Y-20768392D02*
X40477142Y-20839821D01*
X40762857Y-20839821D01*
X40905714Y-20768392D01*
X40977142Y-20625535D01*
X40977142Y-20054107D01*
X40905714Y-19911250D01*
X40762857Y-19839821D01*
X40477142Y-19839821D01*
X40334285Y-19911250D01*
X40262857Y-20054107D01*
X40262857Y-20196964D01*
X40977142Y-20339821D01*
X38762857Y-20696964D02*
X38834285Y-20768392D01*
X39048571Y-20839821D01*
X39191428Y-20839821D01*
X39405714Y-20768392D01*
X39548571Y-20625535D01*
X39620000Y-20482678D01*
X39691428Y-20196964D01*
X39691428Y-19982678D01*
X39620000Y-19696964D01*
X39548571Y-19554107D01*
X39405714Y-19411250D01*
X39191428Y-19339821D01*
X39048571Y-19339821D01*
X38834285Y-19411250D01*
X38762857Y-19482678D01*
X37905714Y-20839821D02*
X38048571Y-20768392D01*
X38120000Y-20625535D01*
X38120000Y-19339821D01*
X37334285Y-20839821D02*
X37334285Y-19839821D01*
X37334285Y-19339821D02*
X37405714Y-19411250D01*
X37334285Y-19482678D01*
X37262857Y-19411250D01*
X37334285Y-19339821D01*
X37334285Y-19482678D01*
X36048571Y-20768392D02*
X36191428Y-20839821D01*
X36477142Y-20839821D01*
X36620000Y-20768392D01*
X36691428Y-20625535D01*
X36691428Y-20054107D01*
X36620000Y-19911250D01*
X36477142Y-19839821D01*
X36191428Y-19839821D01*
X36048571Y-19911250D01*
X35977142Y-20054107D01*
X35977142Y-20196964D01*
X36691428Y-20339821D01*
X35334285Y-19839821D02*
X35334285Y-20839821D01*
X35334285Y-19982678D02*
X35262857Y-19911250D01*
X35120000Y-19839821D01*
X34905714Y-19839821D01*
X34762857Y-19911250D01*
X34691428Y-20054107D01*
X34691428Y-20839821D01*
X34191428Y-19839821D02*
X33620000Y-19839821D01*
X33977142Y-19339821D02*
X33977142Y-20625535D01*
X33905714Y-20768392D01*
X33762857Y-20839821D01*
X33620000Y-20839821D01*
X31977142Y-20839821D02*
X31977142Y-19339821D01*
X31405714Y-19339821D01*
X31262857Y-19411250D01*
X31191428Y-19482678D01*
X31120000Y-19625535D01*
X31120000Y-19839821D01*
X31191428Y-19982678D01*
X31262857Y-20054107D01*
X31405714Y-20125535D01*
X31977142Y-20125535D01*
X30477142Y-20839821D02*
X30477142Y-19839821D01*
X30477142Y-19339821D02*
X30548571Y-19411250D01*
X30477142Y-19482678D01*
X30405714Y-19411250D01*
X30477142Y-19339821D01*
X30477142Y-19482678D01*
X28620000Y-20839821D02*
X28620000Y-19339821D01*
X28620000Y-20054107D02*
X27762857Y-20054107D01*
X27762857Y-20839821D02*
X27762857Y-19339821D01*
X26405714Y-20839821D02*
X26405714Y-20054107D01*
X26477142Y-19911250D01*
X26620000Y-19839821D01*
X26905714Y-19839821D01*
X27048571Y-19911250D01*
X26405714Y-20768392D02*
X26548571Y-20839821D01*
X26905714Y-20839821D01*
X27048571Y-20768392D01*
X27120000Y-20625535D01*
X27120000Y-20482678D01*
X27048571Y-20339821D01*
X26905714Y-20268392D01*
X26548571Y-20268392D01*
X26405714Y-20196964D01*
X25905714Y-19839821D02*
X25334285Y-19839821D01*
X25691428Y-19339821D02*
X25691428Y-20625535D01*
X25620000Y-20768392D01*
X25477142Y-20839821D01*
X25334285Y-20839821D01*
X23834285Y-19839821D02*
X23477142Y-20839821D01*
X23120000Y-19839821D01*
X22548571Y-20696964D02*
X22477142Y-20768392D01*
X22548571Y-20839821D01*
X22620000Y-20768392D01*
X22548571Y-20696964D01*
X22548571Y-20839821D01*
X21905714Y-19482678D02*
X21834285Y-19411250D01*
X21691428Y-19339821D01*
X21334285Y-19339821D01*
X21191428Y-19411250D01*
X21120000Y-19482678D01*
X21048571Y-19625535D01*
X21048571Y-19768392D01*
X21120000Y-19982678D01*
X21977142Y-20839821D01*
X21048571Y-20839821D01*
X46905714Y-23277321D02*
X46905714Y-21777321D01*
X46334285Y-21777321D01*
X46191428Y-21848750D01*
X46120000Y-21920178D01*
X46048571Y-22063035D01*
X46048571Y-22277321D01*
X46120000Y-22420178D01*
X46191428Y-22491607D01*
X46334285Y-22563035D01*
X46905714Y-22563035D01*
X44834285Y-23205892D02*
X44977142Y-23277321D01*
X45262857Y-23277321D01*
X45405714Y-23205892D01*
X45477142Y-23063035D01*
X45477142Y-22491607D01*
X45405714Y-22348750D01*
X45262857Y-22277321D01*
X44977142Y-22277321D01*
X44834285Y-22348750D01*
X44762857Y-22491607D01*
X44762857Y-22634464D01*
X45477142Y-22777321D01*
X44334285Y-22277321D02*
X43762857Y-22277321D01*
X44120000Y-21777321D02*
X44120000Y-23063035D01*
X44048571Y-23205892D01*
X43905714Y-23277321D01*
X43762857Y-23277321D01*
X42691428Y-23205892D02*
X42834285Y-23277321D01*
X43120000Y-23277321D01*
X43262857Y-23205892D01*
X43334285Y-23063035D01*
X43334285Y-22491607D01*
X43262857Y-22348750D01*
X43120000Y-22277321D01*
X42834285Y-22277321D01*
X42691428Y-22348750D01*
X42620000Y-22491607D01*
X42620000Y-22634464D01*
X43334285Y-22777321D01*
X41977142Y-23277321D02*
X41977142Y-22277321D01*
X41977142Y-22563035D02*
X41905714Y-22420178D01*
X41834285Y-22348750D01*
X41691428Y-22277321D01*
X41548571Y-22277321D01*
X39905714Y-23277321D02*
X39905714Y-21777321D01*
X39905714Y-22491607D02*
X39048571Y-22491607D01*
X39048571Y-23277321D02*
X39048571Y-21777321D01*
X37691428Y-23277321D02*
X37691428Y-22491607D01*
X37762857Y-22348750D01*
X37905714Y-22277321D01*
X38191428Y-22277321D01*
X38334285Y-22348750D01*
X37691428Y-23205892D02*
X37834285Y-23277321D01*
X38191428Y-23277321D01*
X38334285Y-23205892D01*
X38405714Y-23063035D01*
X38405714Y-22920178D01*
X38334285Y-22777321D01*
X38191428Y-22705892D01*
X37834285Y-22705892D01*
X37691428Y-22634464D01*
X36977142Y-23277321D02*
X36977142Y-22277321D01*
X36977142Y-22563035D02*
X36905714Y-22420178D01*
X36834285Y-22348750D01*
X36691428Y-22277321D01*
X36548571Y-22277321D01*
X36262857Y-22277321D02*
X35691428Y-22277321D01*
X36048571Y-21777321D02*
X36048571Y-23063035D01*
X35977142Y-23205892D01*
X35834285Y-23277321D01*
X35691428Y-23277321D01*
X35191428Y-23277321D02*
X35191428Y-22277321D01*
X35191428Y-22420178D02*
X35120000Y-22348750D01*
X34977142Y-22277321D01*
X34762857Y-22277321D01*
X34620000Y-22348750D01*
X34548571Y-22491607D01*
X34548571Y-23277321D01*
X34548571Y-22491607D02*
X34477142Y-22348750D01*
X34334285Y-22277321D01*
X34120000Y-22277321D01*
X33977142Y-22348750D01*
X33905714Y-22491607D01*
X33905714Y-23277321D01*
X32548571Y-23277321D02*
X32548571Y-22491607D01*
X32620000Y-22348750D01*
X32762857Y-22277321D01*
X33048571Y-22277321D01*
X33191428Y-22348750D01*
X32548571Y-23205892D02*
X32691428Y-23277321D01*
X33048571Y-23277321D01*
X33191428Y-23205892D01*
X33262857Y-23063035D01*
X33262857Y-22920178D01*
X33191428Y-22777321D01*
X33048571Y-22705892D01*
X32691428Y-22705892D01*
X32548571Y-22634464D01*
X31834285Y-22277321D02*
X31834285Y-23277321D01*
X31834285Y-22420178D02*
X31762857Y-22348750D01*
X31620000Y-22277321D01*
X31405714Y-22277321D01*
X31262857Y-22348750D01*
X31191428Y-22491607D01*
X31191428Y-23277321D01*
X30477142Y-22277321D02*
X30477142Y-23277321D01*
X30477142Y-22420178D02*
X30405714Y-22348750D01*
X30262857Y-22277321D01*
X30048571Y-22277321D01*
X29905714Y-22348750D01*
X29834285Y-22491607D01*
X29834285Y-23277321D01*
D11*
G36*
X38610986Y-7162998D02*
G01*
X38452994Y-7163863D01*
X38338653Y-7166205D01*
X38260593Y-7170762D01*
X38211446Y-7178270D01*
X38183841Y-7189466D01*
X38170408Y-7205088D01*
X38163779Y-7225873D01*
X38163135Y-7228563D01*
X38153065Y-7277113D01*
X38134425Y-7372905D01*
X38109155Y-7505743D01*
X38079193Y-7665431D01*
X38046478Y-7841774D01*
X38045336Y-7847967D01*
X38012567Y-8020782D01*
X37981907Y-8173469D01*
X37955336Y-8296871D01*
X37934833Y-8381831D01*
X37922374Y-8419190D01*
X37921780Y-8419852D01*
X37885081Y-8438095D01*
X37809414Y-8468497D01*
X37711122Y-8504493D01*
X37710575Y-8504685D01*
X37586767Y-8551222D01*
X37440804Y-8610504D01*
X37303219Y-8670109D01*
X37296707Y-8673056D01*
X37072610Y-8774765D01*
X36576381Y-8435897D01*
X36424154Y-8332592D01*
X36286259Y-8240237D01*
X36170685Y-8164084D01*
X36085421Y-8109385D01*
X36038456Y-8081393D01*
X36033996Y-8079317D01*
X35999866Y-8088560D01*
X35936119Y-8133156D01*
X35840269Y-8215209D01*
X35709831Y-8336821D01*
X35576672Y-8466205D01*
X35448306Y-8593702D01*
X35333419Y-8710046D01*
X35238927Y-8808052D01*
X35171747Y-8880536D01*
X35138794Y-8920313D01*
X35137568Y-8922361D01*
X35133926Y-8949656D01*
X35147650Y-8994234D01*
X35182131Y-9062112D01*
X35240761Y-9159311D01*
X35326930Y-9291851D01*
X35441800Y-9462476D01*
X35543746Y-9612655D01*
X35634877Y-9747350D01*
X35709927Y-9858740D01*
X35763631Y-9939005D01*
X35790720Y-9980325D01*
X35792426Y-9983130D01*
X35789118Y-10022721D01*
X35764047Y-10099669D01*
X35722202Y-10199432D01*
X35707288Y-10231291D01*
X35642214Y-10373226D01*
X35572788Y-10534273D01*
X35516391Y-10673621D01*
X35475753Y-10777044D01*
X35443474Y-10855642D01*
X35424822Y-10896720D01*
X35422503Y-10899885D01*
X35388197Y-10905128D01*
X35307331Y-10919494D01*
X35190657Y-10940937D01*
X35048925Y-10967413D01*
X34892890Y-10996877D01*
X34733302Y-11027283D01*
X34580915Y-11056588D01*
X34446479Y-11082745D01*
X34340748Y-11103710D01*
X34274474Y-11117439D01*
X34258218Y-11121320D01*
X34241427Y-11130900D01*
X34228751Y-11152536D01*
X34219622Y-11193531D01*
X34213469Y-11261189D01*
X34209720Y-11362812D01*
X34207808Y-11505703D01*
X34207160Y-11697165D01*
X34207126Y-11775645D01*
X34207126Y-12413906D01*
X34360402Y-12444160D01*
X34445678Y-12460564D01*
X34572930Y-12484509D01*
X34726685Y-12513107D01*
X34891466Y-12543467D01*
X34937011Y-12551806D01*
X35089068Y-12581370D01*
X35221532Y-12610442D01*
X35323286Y-12636329D01*
X35383212Y-12656337D01*
X35393195Y-12662301D01*
X35417707Y-12704534D01*
X35452852Y-12786370D01*
X35491827Y-12891683D01*
X35499558Y-12914368D01*
X35550640Y-13055018D01*
X35614046Y-13213714D01*
X35676096Y-13356225D01*
X35676402Y-13356886D01*
X35779733Y-13580440D01*
X35100039Y-14580232D01*
X35536379Y-15017300D01*
X35668351Y-15147381D01*
X35788721Y-15262048D01*
X35890727Y-15355181D01*
X35967609Y-15420658D01*
X36012607Y-15452357D01*
X36019062Y-15454368D01*
X36056960Y-15438529D01*
X36134292Y-15394496D01*
X36242611Y-15327490D01*
X36373468Y-15242734D01*
X36514948Y-15147816D01*
X36658539Y-15050998D01*
X36786565Y-14966751D01*
X36890895Y-14900258D01*
X36963400Y-14856702D01*
X36995842Y-14841264D01*
X37035424Y-14854328D01*
X37110481Y-14888750D01*
X37205532Y-14937380D01*
X37215608Y-14942785D01*
X37343609Y-15006980D01*
X37431382Y-15038463D01*
X37485972Y-15038798D01*
X37514425Y-15009548D01*
X37514590Y-15009138D01*
X37528812Y-14974498D01*
X37562731Y-14892269D01*
X37613716Y-14768814D01*
X37679138Y-14610498D01*
X37756366Y-14423686D01*
X37842771Y-14214742D01*
X37926449Y-14012446D01*
X38018412Y-13789200D01*
X38102850Y-13582392D01*
X38177231Y-13398362D01*
X38239026Y-13243451D01*
X38285703Y-13123996D01*
X38314732Y-13046339D01*
X38323678Y-13017356D01*
X38301244Y-12984110D01*
X38242561Y-12931123D01*
X38164311Y-12872704D01*
X37941466Y-12687952D01*
X37767282Y-12476182D01*
X37643846Y-12241856D01*
X37573246Y-11989434D01*
X37557569Y-11723377D01*
X37568964Y-11600575D01*
X37631050Y-11345793D01*
X37737977Y-11120801D01*
X37883111Y-10927817D01*
X38059822Y-10769061D01*
X38261478Y-10646750D01*
X38481446Y-10563105D01*
X38713094Y-10520344D01*
X38949791Y-10520687D01*
X39184905Y-10566352D01*
X39411804Y-10659559D01*
X39623856Y-10802527D01*
X39712364Y-10883383D01*
X39882111Y-11091007D01*
X40000301Y-11317895D01*
X40067722Y-11557433D01*
X40085160Y-11803007D01*
X40053402Y-12048003D01*
X39973235Y-12285808D01*
X39845445Y-12509807D01*
X39670820Y-12713387D01*
X39475688Y-12872704D01*
X39394409Y-12933602D01*
X39336991Y-12986015D01*
X39316322Y-13017406D01*
X39327144Y-13051639D01*
X39357923Y-13133419D01*
X39406126Y-13256407D01*
X39469222Y-13414263D01*
X39544678Y-13600649D01*
X39629962Y-13809226D01*
X39713781Y-14012496D01*
X39806255Y-14235933D01*
X39891911Y-14442984D01*
X39968118Y-14627286D01*
X40032247Y-14782475D01*
X40081668Y-14902188D01*
X40113752Y-14980061D01*
X40125641Y-15009138D01*
X40153726Y-15038677D01*
X40208051Y-15038591D01*
X40295605Y-15007326D01*
X40423381Y-14943329D01*
X40424392Y-14942785D01*
X40520598Y-14893121D01*
X40598369Y-14856945D01*
X40642223Y-14841408D01*
X40644158Y-14841264D01*
X40677171Y-14857024D01*
X40750054Y-14900850D01*
X40854678Y-14967557D01*
X40982910Y-15051964D01*
X41125052Y-15147816D01*
X41269767Y-15244867D01*
X41400196Y-15329270D01*
X41507890Y-15395801D01*
X41584402Y-15439238D01*
X41620938Y-15454368D01*
X41654582Y-15434482D01*
X41722224Y-15378903D01*
X41817107Y-15293754D01*
X41932470Y-15185153D01*
X42061555Y-15059221D01*
X42103771Y-15017149D01*
X42540261Y-14579931D01*
X42208023Y-14092340D01*
X42107054Y-13942605D01*
X42018438Y-13808220D01*
X41947146Y-13696969D01*
X41898150Y-13616639D01*
X41876422Y-13575014D01*
X41875785Y-13572053D01*
X41887240Y-13532818D01*
X41918051Y-13453895D01*
X41962884Y-13348509D01*
X41994353Y-13277954D01*
X42053192Y-13142876D01*
X42108604Y-13006409D01*
X42151564Y-12891103D01*
X42163234Y-12855977D01*
X42196389Y-12762174D01*
X42228799Y-12689694D01*
X42246601Y-12662301D01*
X42285886Y-12645536D01*
X42371626Y-12621770D01*
X42492697Y-12593697D01*
X42637973Y-12564009D01*
X42702988Y-12551806D01*
X42868087Y-12521468D01*
X43026448Y-12492093D01*
X43162596Y-12466569D01*
X43261057Y-12447785D01*
X43279598Y-12444160D01*
X43432873Y-12413906D01*
X43432873Y-11775645D01*
X43432529Y-11565770D01*
X43431116Y-11406980D01*
X43428064Y-11291973D01*
X43422803Y-11213446D01*
X43414763Y-11164096D01*
X43403373Y-11136619D01*
X43388063Y-11123713D01*
X43381782Y-11121320D01*
X43343896Y-11112833D01*
X43260195Y-11095900D01*
X43141433Y-11072566D01*
X42998361Y-11044875D01*
X42841732Y-11014873D01*
X42682297Y-10984604D01*
X42530809Y-10956115D01*
X42398019Y-10931449D01*
X42294681Y-10912651D01*
X42231545Y-10901767D01*
X42217497Y-10899885D01*
X42204770Y-10874704D01*
X42176600Y-10807622D01*
X42138252Y-10711333D01*
X42123609Y-10673621D01*
X42064548Y-10527921D01*
X41995000Y-10366951D01*
X41932712Y-10231291D01*
X41886879Y-10127561D01*
X41856387Y-10042326D01*
X41846208Y-9990126D01*
X41847831Y-9983130D01*
X41869343Y-9950102D01*
X41918465Y-9876643D01*
X41989923Y-9770577D01*
X42078445Y-9639726D01*
X42178759Y-9491912D01*
X42198594Y-9462734D01*
X42314988Y-9289863D01*
X42400548Y-9158226D01*
X42458684Y-9061761D01*
X42492808Y-8994408D01*
X42506331Y-8950106D01*
X42502664Y-8922794D01*
X42502570Y-8922620D01*
X42473707Y-8886746D01*
X42409867Y-8817391D01*
X42317969Y-8721745D01*
X42204933Y-8606999D01*
X42077679Y-8480341D01*
X42063328Y-8466205D01*
X41902957Y-8310903D01*
X41779195Y-8196870D01*
X41689555Y-8122002D01*
X41631552Y-8084196D01*
X41606004Y-8079317D01*
X41568718Y-8100603D01*
X41491343Y-8149773D01*
X41381867Y-8221575D01*
X41248280Y-8310755D01*
X41098570Y-8412063D01*
X41063618Y-8435897D01*
X40567390Y-8774765D01*
X40343293Y-8673056D01*
X40207011Y-8613783D01*
X40060724Y-8554170D01*
X39934965Y-8506640D01*
X39929425Y-8504685D01*
X39831057Y-8468677D01*
X39755229Y-8438229D01*
X39718282Y-8419905D01*
X39718220Y-8419852D01*
X39706496Y-8386729D01*
X39686568Y-8305267D01*
X39660413Y-8184625D01*
X39630010Y-8033959D01*
X39597337Y-7862428D01*
X39594664Y-7847967D01*
X39561890Y-7671235D01*
X39531802Y-7510810D01*
X39506339Y-7376888D01*
X39487441Y-7279663D01*
X39477047Y-7229332D01*
X39476865Y-7228563D01*
X39470539Y-7207153D01*
X39458239Y-7190988D01*
X39432594Y-7179331D01*
X39386235Y-7171445D01*
X39311792Y-7166593D01*
X39201895Y-7164039D01*
X39049175Y-7163045D01*
X38846262Y-7162874D01*
X38820000Y-7162874D01*
X38610986Y-7162998D01*
X38610986Y-7162998D01*
G37*
X38610986Y-7162998D02*
X38452994Y-7163863D01*
X38338653Y-7166205D01*
X38260593Y-7170762D01*
X38211446Y-7178270D01*
X38183841Y-7189466D01*
X38170408Y-7205088D01*
X38163779Y-7225873D01*
X38163135Y-7228563D01*
X38153065Y-7277113D01*
X38134425Y-7372905D01*
X38109155Y-7505743D01*
X38079193Y-7665431D01*
X38046478Y-7841774D01*
X38045336Y-7847967D01*
X38012567Y-8020782D01*
X37981907Y-8173469D01*
X37955336Y-8296871D01*
X37934833Y-8381831D01*
X37922374Y-8419190D01*
X37921780Y-8419852D01*
X37885081Y-8438095D01*
X37809414Y-8468497D01*
X37711122Y-8504493D01*
X37710575Y-8504685D01*
X37586767Y-8551222D01*
X37440804Y-8610504D01*
X37303219Y-8670109D01*
X37296707Y-8673056D01*
X37072610Y-8774765D01*
X36576381Y-8435897D01*
X36424154Y-8332592D01*
X36286259Y-8240237D01*
X36170685Y-8164084D01*
X36085421Y-8109385D01*
X36038456Y-8081393D01*
X36033996Y-8079317D01*
X35999866Y-8088560D01*
X35936119Y-8133156D01*
X35840269Y-8215209D01*
X35709831Y-8336821D01*
X35576672Y-8466205D01*
X35448306Y-8593702D01*
X35333419Y-8710046D01*
X35238927Y-8808052D01*
X35171747Y-8880536D01*
X35138794Y-8920313D01*
X35137568Y-8922361D01*
X35133926Y-8949656D01*
X35147650Y-8994234D01*
X35182131Y-9062112D01*
X35240761Y-9159311D01*
X35326930Y-9291851D01*
X35441800Y-9462476D01*
X35543746Y-9612655D01*
X35634877Y-9747350D01*
X35709927Y-9858740D01*
X35763631Y-9939005D01*
X35790720Y-9980325D01*
X35792426Y-9983130D01*
X35789118Y-10022721D01*
X35764047Y-10099669D01*
X35722202Y-10199432D01*
X35707288Y-10231291D01*
X35642214Y-10373226D01*
X35572788Y-10534273D01*
X35516391Y-10673621D01*
X35475753Y-10777044D01*
X35443474Y-10855642D01*
X35424822Y-10896720D01*
X35422503Y-10899885D01*
X35388197Y-10905128D01*
X35307331Y-10919494D01*
X35190657Y-10940937D01*
X35048925Y-10967413D01*
X34892890Y-10996877D01*
X34733302Y-11027283D01*
X34580915Y-11056588D01*
X34446479Y-11082745D01*
X34340748Y-11103710D01*
X34274474Y-11117439D01*
X34258218Y-11121320D01*
X34241427Y-11130900D01*
X34228751Y-11152536D01*
X34219622Y-11193531D01*
X34213469Y-11261189D01*
X34209720Y-11362812D01*
X34207808Y-11505703D01*
X34207160Y-11697165D01*
X34207126Y-11775645D01*
X34207126Y-12413906D01*
X34360402Y-12444160D01*
X34445678Y-12460564D01*
X34572930Y-12484509D01*
X34726685Y-12513107D01*
X34891466Y-12543467D01*
X34937011Y-12551806D01*
X35089068Y-12581370D01*
X35221532Y-12610442D01*
X35323286Y-12636329D01*
X35383212Y-12656337D01*
X35393195Y-12662301D01*
X35417707Y-12704534D01*
X35452852Y-12786370D01*
X35491827Y-12891683D01*
X35499558Y-12914368D01*
X35550640Y-13055018D01*
X35614046Y-13213714D01*
X35676096Y-13356225D01*
X35676402Y-13356886D01*
X35779733Y-13580440D01*
X35100039Y-14580232D01*
X35536379Y-15017300D01*
X35668351Y-15147381D01*
X35788721Y-15262048D01*
X35890727Y-15355181D01*
X35967609Y-15420658D01*
X36012607Y-15452357D01*
X36019062Y-15454368D01*
X36056960Y-15438529D01*
X36134292Y-15394496D01*
X36242611Y-15327490D01*
X36373468Y-15242734D01*
X36514948Y-15147816D01*
X36658539Y-15050998D01*
X36786565Y-14966751D01*
X36890895Y-14900258D01*
X36963400Y-14856702D01*
X36995842Y-14841264D01*
X37035424Y-14854328D01*
X37110481Y-14888750D01*
X37205532Y-14937380D01*
X37215608Y-14942785D01*
X37343609Y-15006980D01*
X37431382Y-15038463D01*
X37485972Y-15038798D01*
X37514425Y-15009548D01*
X37514590Y-15009138D01*
X37528812Y-14974498D01*
X37562731Y-14892269D01*
X37613716Y-14768814D01*
X37679138Y-14610498D01*
X37756366Y-14423686D01*
X37842771Y-14214742D01*
X37926449Y-14012446D01*
X38018412Y-13789200D01*
X38102850Y-13582392D01*
X38177231Y-13398362D01*
X38239026Y-13243451D01*
X38285703Y-13123996D01*
X38314732Y-13046339D01*
X38323678Y-13017356D01*
X38301244Y-12984110D01*
X38242561Y-12931123D01*
X38164311Y-12872704D01*
X37941466Y-12687952D01*
X37767282Y-12476182D01*
X37643846Y-12241856D01*
X37573246Y-11989434D01*
X37557569Y-11723377D01*
X37568964Y-11600575D01*
X37631050Y-11345793D01*
X37737977Y-11120801D01*
X37883111Y-10927817D01*
X38059822Y-10769061D01*
X38261478Y-10646750D01*
X38481446Y-10563105D01*
X38713094Y-10520344D01*
X38949791Y-10520687D01*
X39184905Y-10566352D01*
X39411804Y-10659559D01*
X39623856Y-10802527D01*
X39712364Y-10883383D01*
X39882111Y-11091007D01*
X40000301Y-11317895D01*
X40067722Y-11557433D01*
X40085160Y-11803007D01*
X40053402Y-12048003D01*
X39973235Y-12285808D01*
X39845445Y-12509807D01*
X39670820Y-12713387D01*
X39475688Y-12872704D01*
X39394409Y-12933602D01*
X39336991Y-12986015D01*
X39316322Y-13017406D01*
X39327144Y-13051639D01*
X39357923Y-13133419D01*
X39406126Y-13256407D01*
X39469222Y-13414263D01*
X39544678Y-13600649D01*
X39629962Y-13809226D01*
X39713781Y-14012496D01*
X39806255Y-14235933D01*
X39891911Y-14442984D01*
X39968118Y-14627286D01*
X40032247Y-14782475D01*
X40081668Y-14902188D01*
X40113752Y-14980061D01*
X40125641Y-15009138D01*
X40153726Y-15038677D01*
X40208051Y-15038591D01*
X40295605Y-15007326D01*
X40423381Y-14943329D01*
X40424392Y-14942785D01*
X40520598Y-14893121D01*
X40598369Y-14856945D01*
X40642223Y-14841408D01*
X40644158Y-14841264D01*
X40677171Y-14857024D01*
X40750054Y-14900850D01*
X40854678Y-14967557D01*
X40982910Y-15051964D01*
X41125052Y-15147816D01*
X41269767Y-15244867D01*
X41400196Y-15329270D01*
X41507890Y-15395801D01*
X41584402Y-15439238D01*
X41620938Y-15454368D01*
X41654582Y-15434482D01*
X41722224Y-15378903D01*
X41817107Y-15293754D01*
X41932470Y-15185153D01*
X42061555Y-15059221D01*
X42103771Y-15017149D01*
X42540261Y-14579931D01*
X42208023Y-14092340D01*
X42107054Y-13942605D01*
X42018438Y-13808220D01*
X41947146Y-13696969D01*
X41898150Y-13616639D01*
X41876422Y-13575014D01*
X41875785Y-13572053D01*
X41887240Y-13532818D01*
X41918051Y-13453895D01*
X41962884Y-13348509D01*
X41994353Y-13277954D01*
X42053192Y-13142876D01*
X42108604Y-13006409D01*
X42151564Y-12891103D01*
X42163234Y-12855977D01*
X42196389Y-12762174D01*
X42228799Y-12689694D01*
X42246601Y-12662301D01*
X42285886Y-12645536D01*
X42371626Y-12621770D01*
X42492697Y-12593697D01*
X42637973Y-12564009D01*
X42702988Y-12551806D01*
X42868087Y-12521468D01*
X43026448Y-12492093D01*
X43162596Y-12466569D01*
X43261057Y-12447785D01*
X43279598Y-12444160D01*
X43432873Y-12413906D01*
X43432873Y-11775645D01*
X43432529Y-11565770D01*
X43431116Y-11406980D01*
X43428064Y-11291973D01*
X43422803Y-11213446D01*
X43414763Y-11164096D01*
X43403373Y-11136619D01*
X43388063Y-11123713D01*
X43381782Y-11121320D01*
X43343896Y-11112833D01*
X43260195Y-11095900D01*
X43141433Y-11072566D01*
X42998361Y-11044875D01*
X42841732Y-11014873D01*
X42682297Y-10984604D01*
X42530809Y-10956115D01*
X42398019Y-10931449D01*
X42294681Y-10912651D01*
X42231545Y-10901767D01*
X42217497Y-10899885D01*
X42204770Y-10874704D01*
X42176600Y-10807622D01*
X42138252Y-10711333D01*
X42123609Y-10673621D01*
X42064548Y-10527921D01*
X41995000Y-10366951D01*
X41932712Y-10231291D01*
X41886879Y-10127561D01*
X41856387Y-10042326D01*
X41846208Y-9990126D01*
X41847831Y-9983130D01*
X41869343Y-9950102D01*
X41918465Y-9876643D01*
X41989923Y-9770577D01*
X42078445Y-9639726D01*
X42178759Y-9491912D01*
X42198594Y-9462734D01*
X42314988Y-9289863D01*
X42400548Y-9158226D01*
X42458684Y-9061761D01*
X42492808Y-8994408D01*
X42506331Y-8950106D01*
X42502664Y-8922794D01*
X42502570Y-8922620D01*
X42473707Y-8886746D01*
X42409867Y-8817391D01*
X42317969Y-8721745D01*
X42204933Y-8606999D01*
X42077679Y-8480341D01*
X42063328Y-8466205D01*
X41902957Y-8310903D01*
X41779195Y-8196870D01*
X41689555Y-8122002D01*
X41631552Y-8084196D01*
X41606004Y-8079317D01*
X41568718Y-8100603D01*
X41491343Y-8149773D01*
X41381867Y-8221575D01*
X41248280Y-8310755D01*
X41098570Y-8412063D01*
X41063618Y-8435897D01*
X40567390Y-8774765D01*
X40343293Y-8673056D01*
X40207011Y-8613783D01*
X40060724Y-8554170D01*
X39934965Y-8506640D01*
X39929425Y-8504685D01*
X39831057Y-8468677D01*
X39755229Y-8438229D01*
X39718282Y-8419905D01*
X39718220Y-8419852D01*
X39706496Y-8386729D01*
X39686568Y-8305267D01*
X39660413Y-8184625D01*
X39630010Y-8033959D01*
X39597337Y-7862428D01*
X39594664Y-7847967D01*
X39561890Y-7671235D01*
X39531802Y-7510810D01*
X39506339Y-7376888D01*
X39487441Y-7279663D01*
X39477047Y-7229332D01*
X39476865Y-7228563D01*
X39470539Y-7207153D01*
X39458239Y-7190988D01*
X39432594Y-7179331D01*
X39386235Y-7171445D01*
X39311792Y-7166593D01*
X39201895Y-7164039D01*
X39049175Y-7163045D01*
X38846262Y-7162874D01*
X38820000Y-7162874D01*
X38610986Y-7162998D01*
G36*
X32476561Y-16666540D02*
G01*
X32361050Y-16742034D01*
X32305336Y-16809617D01*
X32261196Y-16932255D01*
X32257691Y-17029298D01*
X32265632Y-17159056D01*
X32564885Y-17290039D01*
X32710389Y-17356958D01*
X32805463Y-17410790D01*
X32854899Y-17457416D01*
X32863489Y-17502720D01*
X32836028Y-17552582D01*
X32805747Y-17585632D01*
X32717637Y-17638633D01*
X32621804Y-17642347D01*
X32533788Y-17601041D01*
X32469131Y-17518983D01*
X32457567Y-17490008D01*
X32402175Y-17399509D01*
X32338447Y-17360940D01*
X32251034Y-17327946D01*
X32251034Y-17453034D01*
X32258762Y-17538156D01*
X32289034Y-17609938D01*
X32352482Y-17692356D01*
X32361912Y-17703066D01*
X32432487Y-17776391D01*
X32493153Y-17815742D01*
X32569050Y-17833845D01*
X32631970Y-17839774D01*
X32744513Y-17841251D01*
X32824630Y-17822535D01*
X32874610Y-17794747D01*
X32953162Y-17733641D01*
X33007537Y-17667554D01*
X33041948Y-17584441D01*
X33060612Y-17472254D01*
X33067744Y-17318946D01*
X33068313Y-17241136D01*
X33066378Y-17147853D01*
X32890101Y-17147853D01*
X32888056Y-17197896D01*
X32882961Y-17206092D01*
X32849334Y-17194958D01*
X32776970Y-17165493D01*
X32680253Y-17123601D01*
X32660027Y-17114597D01*
X32537797Y-17052442D01*
X32470453Y-16997815D01*
X32455652Y-16946649D01*
X32491053Y-16894876D01*
X32520289Y-16872000D01*
X32625784Y-16826250D01*
X32724524Y-16833808D01*
X32807188Y-16889651D01*
X32864452Y-16988753D01*
X32882812Y-17067414D01*
X32890101Y-17147853D01*
X33066378Y-17147853D01*
X33064541Y-17059351D01*
X33050641Y-16924853D01*
X33023106Y-16826916D01*
X32978428Y-16754811D01*
X32913099Y-16697813D01*
X32884617Y-16679393D01*
X32755237Y-16631422D01*
X32613588Y-16628403D01*
X32476561Y-16666540D01*
X32476561Y-16666540D01*
G37*
X32476561Y-16666540D02*
X32361050Y-16742034D01*
X32305336Y-16809617D01*
X32261196Y-16932255D01*
X32257691Y-17029298D01*
X32265632Y-17159056D01*
X32564885Y-17290039D01*
X32710389Y-17356958D01*
X32805463Y-17410790D01*
X32854899Y-17457416D01*
X32863489Y-17502720D01*
X32836028Y-17552582D01*
X32805747Y-17585632D01*
X32717637Y-17638633D01*
X32621804Y-17642347D01*
X32533788Y-17601041D01*
X32469131Y-17518983D01*
X32457567Y-17490008D01*
X32402175Y-17399509D01*
X32338447Y-17360940D01*
X32251034Y-17327946D01*
X32251034Y-17453034D01*
X32258762Y-17538156D01*
X32289034Y-17609938D01*
X32352482Y-17692356D01*
X32361912Y-17703066D01*
X32432487Y-17776391D01*
X32493153Y-17815742D01*
X32569050Y-17833845D01*
X32631970Y-17839774D01*
X32744513Y-17841251D01*
X32824630Y-17822535D01*
X32874610Y-17794747D01*
X32953162Y-17733641D01*
X33007537Y-17667554D01*
X33041948Y-17584441D01*
X33060612Y-17472254D01*
X33067744Y-17318946D01*
X33068313Y-17241136D01*
X33066378Y-17147853D01*
X32890101Y-17147853D01*
X32888056Y-17197896D01*
X32882961Y-17206092D01*
X32849334Y-17194958D01*
X32776970Y-17165493D01*
X32680253Y-17123601D01*
X32660027Y-17114597D01*
X32537797Y-17052442D01*
X32470453Y-16997815D01*
X32455652Y-16946649D01*
X32491053Y-16894876D01*
X32520289Y-16872000D01*
X32625784Y-16826250D01*
X32724524Y-16833808D01*
X32807188Y-16889651D01*
X32864452Y-16988753D01*
X32882812Y-17067414D01*
X32890101Y-17147853D01*
X33066378Y-17147853D01*
X33064541Y-17059351D01*
X33050641Y-16924853D01*
X33023106Y-16826916D01*
X32978428Y-16754811D01*
X32913099Y-16697813D01*
X32884617Y-16679393D01*
X32755237Y-16631422D01*
X32613588Y-16628403D01*
X32476561Y-16666540D01*
G36*
X33484310Y-16650018D02*
G01*
X33449415Y-16665269D01*
X33366123Y-16731235D01*
X33294897Y-16826618D01*
X33250847Y-16928406D01*
X33243678Y-16978587D01*
X33267715Y-17048647D01*
X33320439Y-17085717D01*
X33376969Y-17108164D01*
X33402854Y-17112300D01*
X33415458Y-17082283D01*
X33440346Y-17016961D01*
X33451265Y-16987445D01*
X33512492Y-16885348D01*
X33601139Y-16834423D01*
X33714807Y-16835989D01*
X33723226Y-16837994D01*
X33783912Y-16866767D01*
X33828526Y-16922859D01*
X33858998Y-17013163D01*
X33877256Y-17144571D01*
X33885229Y-17323974D01*
X33885977Y-17419433D01*
X33886348Y-17569913D01*
X33888777Y-17672495D01*
X33895240Y-17737672D01*
X33907712Y-17775938D01*
X33928167Y-17797785D01*
X33958581Y-17813707D01*
X33960339Y-17814509D01*
X34018909Y-17839272D01*
X34047925Y-17848391D01*
X34052384Y-17820822D01*
X34056201Y-17744620D01*
X34059101Y-17629541D01*
X34060809Y-17485341D01*
X34061149Y-17379814D01*
X34059412Y-17175613D01*
X34052618Y-17020697D01*
X34038393Y-16906024D01*
X34014362Y-16822551D01*
X33978152Y-16761236D01*
X33927388Y-16713034D01*
X33877261Y-16679393D01*
X33756725Y-16634619D01*
X33616443Y-16624521D01*
X33484310Y-16650018D01*
X33484310Y-16650018D01*
G37*
X33484310Y-16650018D02*
X33449415Y-16665269D01*
X33366123Y-16731235D01*
X33294897Y-16826618D01*
X33250847Y-16928406D01*
X33243678Y-16978587D01*
X33267715Y-17048647D01*
X33320439Y-17085717D01*
X33376969Y-17108164D01*
X33402854Y-17112300D01*
X33415458Y-17082283D01*
X33440346Y-17016961D01*
X33451265Y-16987445D01*
X33512492Y-16885348D01*
X33601139Y-16834423D01*
X33714807Y-16835989D01*
X33723226Y-16837994D01*
X33783912Y-16866767D01*
X33828526Y-16922859D01*
X33858998Y-17013163D01*
X33877256Y-17144571D01*
X33885229Y-17323974D01*
X33885977Y-17419433D01*
X33886348Y-17569913D01*
X33888777Y-17672495D01*
X33895240Y-17737672D01*
X33907712Y-17775938D01*
X33928167Y-17797785D01*
X33958581Y-17813707D01*
X33960339Y-17814509D01*
X34018909Y-17839272D01*
X34047925Y-17848391D01*
X34052384Y-17820822D01*
X34056201Y-17744620D01*
X34059101Y-17629541D01*
X34060809Y-17485341D01*
X34061149Y-17379814D01*
X34059412Y-17175613D01*
X34052618Y-17020697D01*
X34038393Y-16906024D01*
X34014362Y-16822551D01*
X33978152Y-16761236D01*
X33927388Y-16713034D01*
X33877261Y-16679393D01*
X33756725Y-16634619D01*
X33616443Y-16624521D01*
X33484310Y-16650018D01*
G36*
X34505594Y-16645156D02*
G01*
X34421531Y-16683393D01*
X34355550Y-16729726D01*
X34307206Y-16781532D01*
X34273828Y-16848363D01*
X34252747Y-16939769D01*
X34241293Y-17065301D01*
X34236797Y-17234508D01*
X34236322Y-17345933D01*
X34236322Y-17780627D01*
X34310684Y-17814509D01*
X34369254Y-17839272D01*
X34398270Y-17848391D01*
X34403821Y-17821257D01*
X34408225Y-17748094D01*
X34410922Y-17641263D01*
X34411494Y-17556437D01*
X34413954Y-17433887D01*
X34420588Y-17336668D01*
X34430274Y-17277134D01*
X34437968Y-17264483D01*
X34489689Y-17277402D01*
X34570883Y-17310539D01*
X34664898Y-17355461D01*
X34755083Y-17403735D01*
X34824785Y-17446928D01*
X34857352Y-17476608D01*
X34857481Y-17476929D01*
X34854680Y-17531857D01*
X34829561Y-17584292D01*
X34785459Y-17626881D01*
X34721091Y-17641126D01*
X34666079Y-17639466D01*
X34588165Y-17638245D01*
X34547268Y-17656498D01*
X34522705Y-17704726D01*
X34519608Y-17713820D01*
X34508960Y-17782598D01*
X34537435Y-17824360D01*
X34611656Y-17844263D01*
X34691832Y-17847944D01*
X34836110Y-17820658D01*
X34910797Y-17781690D01*
X35003037Y-17690148D01*
X35051957Y-17577782D01*
X35056346Y-17459051D01*
X35014999Y-17348411D01*
X34952803Y-17279080D01*
X34890706Y-17240265D01*
X34793105Y-17191125D01*
X34679368Y-17141292D01*
X34660410Y-17133677D01*
X34535479Y-17078545D01*
X34463461Y-17029954D01*
X34440300Y-16981647D01*
X34461936Y-16927370D01*
X34499080Y-16884943D01*
X34586873Y-16832702D01*
X34683470Y-16828784D01*
X34772056Y-16869041D01*
X34835814Y-16949326D01*
X34844183Y-16970040D01*
X34892904Y-17046225D01*
X34964035Y-17102785D01*
X35053793Y-17149201D01*
X35053793Y-17017584D01*
X35048510Y-16937168D01*
X35025858Y-16873786D01*
X34975633Y-16806163D01*
X34927418Y-16754076D01*
X34852446Y-16680322D01*
X34794194Y-16640702D01*
X34731628Y-16624810D01*
X34660807Y-16622184D01*
X34505594Y-16645156D01*
X34505594Y-16645156D01*
G37*
X34505594Y-16645156D02*
X34421531Y-16683393D01*
X34355550Y-16729726D01*
X34307206Y-16781532D01*
X34273828Y-16848363D01*
X34252747Y-16939769D01*
X34241293Y-17065301D01*
X34236797Y-17234508D01*
X34236322Y-17345933D01*
X34236322Y-17780627D01*
X34310684Y-17814509D01*
X34369254Y-17839272D01*
X34398270Y-17848391D01*
X34403821Y-17821257D01*
X34408225Y-17748094D01*
X34410922Y-17641263D01*
X34411494Y-17556437D01*
X34413954Y-17433887D01*
X34420588Y-17336668D01*
X34430274Y-17277134D01*
X34437968Y-17264483D01*
X34489689Y-17277402D01*
X34570883Y-17310539D01*
X34664898Y-17355461D01*
X34755083Y-17403735D01*
X34824785Y-17446928D01*
X34857352Y-17476608D01*
X34857481Y-17476929D01*
X34854680Y-17531857D01*
X34829561Y-17584292D01*
X34785459Y-17626881D01*
X34721091Y-17641126D01*
X34666079Y-17639466D01*
X34588165Y-17638245D01*
X34547268Y-17656498D01*
X34522705Y-17704726D01*
X34519608Y-17713820D01*
X34508960Y-17782598D01*
X34537435Y-17824360D01*
X34611656Y-17844263D01*
X34691832Y-17847944D01*
X34836110Y-17820658D01*
X34910797Y-17781690D01*
X35003037Y-17690148D01*
X35051957Y-17577782D01*
X35056346Y-17459051D01*
X35014999Y-17348411D01*
X34952803Y-17279080D01*
X34890706Y-17240265D01*
X34793105Y-17191125D01*
X34679368Y-17141292D01*
X34660410Y-17133677D01*
X34535479Y-17078545D01*
X34463461Y-17029954D01*
X34440300Y-16981647D01*
X34461936Y-16927370D01*
X34499080Y-16884943D01*
X34586873Y-16832702D01*
X34683470Y-16828784D01*
X34772056Y-16869041D01*
X34835814Y-16949326D01*
X34844183Y-16970040D01*
X34892904Y-17046225D01*
X34964035Y-17102785D01*
X35053793Y-17149201D01*
X35053793Y-17017584D01*
X35048510Y-16937168D01*
X35025858Y-16873786D01*
X34975633Y-16806163D01*
X34927418Y-16754076D01*
X34852446Y-16680322D01*
X34794194Y-16640702D01*
X34731628Y-16624810D01*
X34660807Y-16622184D01*
X34505594Y-16645156D01*
G36*
X35239876Y-16649840D02*
G01*
X35235421Y-16726653D01*
X35231929Y-16843391D01*
X35229685Y-16990821D01*
X35228965Y-17145455D01*
X35228965Y-17668727D01*
X35321355Y-17761117D01*
X35385022Y-17818047D01*
X35440911Y-17841107D01*
X35517298Y-17839647D01*
X35547620Y-17835934D01*
X35642390Y-17825126D01*
X35720778Y-17818933D01*
X35739885Y-17818361D01*
X35804301Y-17822102D01*
X35896429Y-17831494D01*
X35932150Y-17835934D01*
X36019886Y-17842801D01*
X36078847Y-17827885D01*
X36137310Y-17781835D01*
X36158415Y-17761117D01*
X36250805Y-17668727D01*
X36250805Y-16689947D01*
X36176442Y-16656066D01*
X36112410Y-16630970D01*
X36074948Y-16622184D01*
X36065343Y-16649950D01*
X36056365Y-16727530D01*
X36048614Y-16846348D01*
X36042686Y-16997828D01*
X36039827Y-17125805D01*
X36031839Y-17629425D01*
X35962152Y-17639278D01*
X35898771Y-17632389D01*
X35867714Y-17610083D01*
X35859033Y-17568379D01*
X35851622Y-17479544D01*
X35846069Y-17354834D01*
X35842964Y-17205507D01*
X35842516Y-17128661D01*
X35842069Y-16686287D01*
X35750126Y-16654235D01*
X35685051Y-16632443D01*
X35649653Y-16622281D01*
X35648632Y-16622184D01*
X35645080Y-16649809D01*
X35641177Y-16726411D01*
X35637249Y-16842579D01*
X35633624Y-16988904D01*
X35631092Y-17125805D01*
X35623103Y-17629425D01*
X35447931Y-17629425D01*
X35439893Y-17169965D01*
X35431854Y-16710505D01*
X35346457Y-16666344D01*
X35283407Y-16636019D01*
X35246090Y-16622258D01*
X35245013Y-16622184D01*
X35239876Y-16649840D01*
X35239876Y-16649840D01*
G37*
X35239876Y-16649840D02*
X35235421Y-16726653D01*
X35231929Y-16843391D01*
X35229685Y-16990821D01*
X35228965Y-17145455D01*
X35228965Y-17668727D01*
X35321355Y-17761117D01*
X35385022Y-17818047D01*
X35440911Y-17841107D01*
X35517298Y-17839647D01*
X35547620Y-17835934D01*
X35642390Y-17825126D01*
X35720778Y-17818933D01*
X35739885Y-17818361D01*
X35804301Y-17822102D01*
X35896429Y-17831494D01*
X35932150Y-17835934D01*
X36019886Y-17842801D01*
X36078847Y-17827885D01*
X36137310Y-17781835D01*
X36158415Y-17761117D01*
X36250805Y-17668727D01*
X36250805Y-16689947D01*
X36176442Y-16656066D01*
X36112410Y-16630970D01*
X36074948Y-16622184D01*
X36065343Y-16649950D01*
X36056365Y-16727530D01*
X36048614Y-16846348D01*
X36042686Y-16997828D01*
X36039827Y-17125805D01*
X36031839Y-17629425D01*
X35962152Y-17639278D01*
X35898771Y-17632389D01*
X35867714Y-17610083D01*
X35859033Y-17568379D01*
X35851622Y-17479544D01*
X35846069Y-17354834D01*
X35842964Y-17205507D01*
X35842516Y-17128661D01*
X35842069Y-16686287D01*
X35750126Y-16654235D01*
X35685051Y-16632443D01*
X35649653Y-16622281D01*
X35648632Y-16622184D01*
X35645080Y-16649809D01*
X35641177Y-16726411D01*
X35637249Y-16842579D01*
X35633624Y-16988904D01*
X35631092Y-17125805D01*
X35623103Y-17629425D01*
X35447931Y-17629425D01*
X35439893Y-17169965D01*
X35431854Y-16710505D01*
X35346457Y-16666344D01*
X35283407Y-16636019D01*
X35246090Y-16622258D01*
X35245013Y-16622184D01*
X35239876Y-16649840D01*
G36*
X36426086Y-16864455D02*
G01*
X36426457Y-17082661D01*
X36427892Y-17250519D01*
X36430998Y-17376070D01*
X36436378Y-17467355D01*
X36444638Y-17532415D01*
X36456384Y-17579291D01*
X36472219Y-17616024D01*
X36484210Y-17636991D01*
X36583510Y-17750694D01*
X36709412Y-17821965D01*
X36848709Y-17847538D01*
X36988195Y-17824150D01*
X37071257Y-17782119D01*
X37158455Y-17709411D01*
X37217883Y-17620612D01*
X37253739Y-17504320D01*
X37270219Y-17349135D01*
X37272553Y-17235287D01*
X37272239Y-17227106D01*
X37068276Y-17227106D01*
X37067030Y-17357657D01*
X37061322Y-17444080D01*
X37048196Y-17500618D01*
X37024694Y-17541514D01*
X36996614Y-17572362D01*
X36902312Y-17631905D01*
X36801060Y-17636992D01*
X36705364Y-17587279D01*
X36697916Y-17580543D01*
X36666126Y-17545502D01*
X36646192Y-17503811D01*
X36635400Y-17441762D01*
X36631035Y-17345644D01*
X36630345Y-17239379D01*
X36631841Y-17105880D01*
X36638036Y-17016822D01*
X36651486Y-16958293D01*
X36674749Y-16916382D01*
X36693825Y-16894123D01*
X36782437Y-16837985D01*
X36884492Y-16831235D01*
X36981905Y-16874114D01*
X37000704Y-16890032D01*
X37032707Y-16925382D01*
X37052682Y-16967502D01*
X37063407Y-17030251D01*
X37067661Y-17127487D01*
X37068276Y-17227106D01*
X37272239Y-17227106D01*
X37265496Y-17051947D01*
X37241528Y-16914195D01*
X37196452Y-16810632D01*
X37126072Y-16729856D01*
X37071257Y-16688455D01*
X36971624Y-16643728D01*
X36856145Y-16622967D01*
X36748801Y-16628525D01*
X36688736Y-16650943D01*
X36665165Y-16657323D01*
X36649523Y-16633535D01*
X36638605Y-16569788D01*
X36630345Y-16472687D01*
X36621301Y-16364541D01*
X36608739Y-16299475D01*
X36585881Y-16262268D01*
X36545949Y-16237699D01*
X36520862Y-16226819D01*
X36425977Y-16187072D01*
X36426086Y-16864455D01*
X36426086Y-16864455D01*
G37*
X36426086Y-16864455D02*
X36426457Y-17082661D01*
X36427892Y-17250519D01*
X36430998Y-17376070D01*
X36436378Y-17467355D01*
X36444638Y-17532415D01*
X36456384Y-17579291D01*
X36472219Y-17616024D01*
X36484210Y-17636991D01*
X36583510Y-17750694D01*
X36709412Y-17821965D01*
X36848709Y-17847538D01*
X36988195Y-17824150D01*
X37071257Y-17782119D01*
X37158455Y-17709411D01*
X37217883Y-17620612D01*
X37253739Y-17504320D01*
X37270219Y-17349135D01*
X37272553Y-17235287D01*
X37272239Y-17227106D01*
X37068276Y-17227106D01*
X37067030Y-17357657D01*
X37061322Y-17444080D01*
X37048196Y-17500618D01*
X37024694Y-17541514D01*
X36996614Y-17572362D01*
X36902312Y-17631905D01*
X36801060Y-17636992D01*
X36705364Y-17587279D01*
X36697916Y-17580543D01*
X36666126Y-17545502D01*
X36646192Y-17503811D01*
X36635400Y-17441762D01*
X36631035Y-17345644D01*
X36630345Y-17239379D01*
X36631841Y-17105880D01*
X36638036Y-17016822D01*
X36651486Y-16958293D01*
X36674749Y-16916382D01*
X36693825Y-16894123D01*
X36782437Y-16837985D01*
X36884492Y-16831235D01*
X36981905Y-16874114D01*
X37000704Y-16890032D01*
X37032707Y-16925382D01*
X37052682Y-16967502D01*
X37063407Y-17030251D01*
X37067661Y-17127487D01*
X37068276Y-17227106D01*
X37272239Y-17227106D01*
X37265496Y-17051947D01*
X37241528Y-16914195D01*
X37196452Y-16810632D01*
X37126072Y-16729856D01*
X37071257Y-16688455D01*
X36971624Y-16643728D01*
X36856145Y-16622967D01*
X36748801Y-16628525D01*
X36688736Y-16650943D01*
X36665165Y-16657323D01*
X36649523Y-16633535D01*
X36638605Y-16569788D01*
X36630345Y-16472687D01*
X36621301Y-16364541D01*
X36608739Y-16299475D01*
X36585881Y-16262268D01*
X36545949Y-16237699D01*
X36520862Y-16226819D01*
X36425977Y-16187072D01*
X36426086Y-16864455D01*
G36*
X37754057Y-16631920D02*
G01*
X37621435Y-16680859D01*
X37513990Y-16767419D01*
X37471968Y-16828352D01*
X37426157Y-16940161D01*
X37427109Y-17021006D01*
X37475192Y-17075378D01*
X37492983Y-17084624D01*
X37569796Y-17113450D01*
X37609024Y-17106065D01*
X37622311Y-17057658D01*
X37622988Y-17030920D01*
X37647314Y-16932548D01*
X37710719Y-16863734D01*
X37798846Y-16830498D01*
X37897337Y-16838861D01*
X37977398Y-16882296D01*
X38004439Y-16907072D01*
X38023606Y-16937129D01*
X38036554Y-16982565D01*
X38044936Y-17053476D01*
X38050407Y-17159960D01*
X38054622Y-17312112D01*
X38055713Y-17360287D01*
X38059693Y-17525095D01*
X38064219Y-17641088D01*
X38071005Y-17717833D01*
X38081769Y-17764893D01*
X38098227Y-17791835D01*
X38122094Y-17808223D01*
X38137374Y-17815463D01*
X38202267Y-17840220D01*
X38240466Y-17848391D01*
X38253088Y-17821103D01*
X38260792Y-17738603D01*
X38263620Y-17599941D01*
X38261614Y-17404162D01*
X38260989Y-17373965D01*
X38256579Y-17195349D01*
X38251365Y-17064923D01*
X38243945Y-16972492D01*
X38232918Y-16907858D01*
X38216883Y-16860825D01*
X38194439Y-16821196D01*
X38182698Y-16804215D01*
X38115381Y-16729080D01*
X38040090Y-16670638D01*
X38030872Y-16665536D01*
X37895867Y-16625260D01*
X37754057Y-16631920D01*
X37754057Y-16631920D01*
G37*
X37754057Y-16631920D02*
X37621435Y-16680859D01*
X37513990Y-16767419D01*
X37471968Y-16828352D01*
X37426157Y-16940161D01*
X37427109Y-17021006D01*
X37475192Y-17075378D01*
X37492983Y-17084624D01*
X37569796Y-17113450D01*
X37609024Y-17106065D01*
X37622311Y-17057658D01*
X37622988Y-17030920D01*
X37647314Y-16932548D01*
X37710719Y-16863734D01*
X37798846Y-16830498D01*
X37897337Y-16838861D01*
X37977398Y-16882296D01*
X38004439Y-16907072D01*
X38023606Y-16937129D01*
X38036554Y-16982565D01*
X38044936Y-17053476D01*
X38050407Y-17159960D01*
X38054622Y-17312112D01*
X38055713Y-17360287D01*
X38059693Y-17525095D01*
X38064219Y-17641088D01*
X38071005Y-17717833D01*
X38081769Y-17764893D01*
X38098227Y-17791835D01*
X38122094Y-17808223D01*
X38137374Y-17815463D01*
X38202267Y-17840220D01*
X38240466Y-17848391D01*
X38253088Y-17821103D01*
X38260792Y-17738603D01*
X38263620Y-17599941D01*
X38261614Y-17404162D01*
X38260989Y-17373965D01*
X38256579Y-17195349D01*
X38251365Y-17064923D01*
X38243945Y-16972492D01*
X38232918Y-16907858D01*
X38216883Y-16860825D01*
X38194439Y-16821196D01*
X38182698Y-16804215D01*
X38115381Y-16729080D01*
X38040090Y-16670638D01*
X38030872Y-16665536D01*
X37895867Y-16625260D01*
X37754057Y-16631920D01*
G36*
X38740056Y-16634360D02*
G01*
X38625657Y-16676842D01*
X38624348Y-16677658D01*
X38553597Y-16729730D01*
X38501364Y-16790584D01*
X38464629Y-16869887D01*
X38440366Y-16977309D01*
X38425555Y-17122517D01*
X38417171Y-17315179D01*
X38416436Y-17342628D01*
X38405880Y-17756521D01*
X38494709Y-17802456D01*
X38558982Y-17833498D01*
X38597790Y-17848206D01*
X38599585Y-17848391D01*
X38606300Y-17821250D01*
X38611635Y-17748041D01*
X38614917Y-17641081D01*
X38615632Y-17554469D01*
X38615649Y-17414162D01*
X38622063Y-17326051D01*
X38644420Y-17284025D01*
X38692268Y-17281975D01*
X38775151Y-17313790D01*
X38900287Y-17372272D01*
X38992303Y-17420845D01*
X39039629Y-17462986D01*
X39053542Y-17508916D01*
X39053563Y-17511189D01*
X39030605Y-17590311D01*
X38962630Y-17633055D01*
X38858602Y-17639246D01*
X38783670Y-17638172D01*
X38744161Y-17659753D01*
X38719522Y-17711591D01*
X38705341Y-17777632D01*
X38725777Y-17815104D01*
X38733472Y-17820467D01*
X38805917Y-17842006D01*
X38907367Y-17845055D01*
X39011843Y-17830778D01*
X39085875Y-17804688D01*
X39188228Y-17717785D01*
X39246409Y-17596816D01*
X39257931Y-17502308D01*
X39249138Y-17417062D01*
X39217320Y-17347476D01*
X39154316Y-17285672D01*
X39051969Y-17223772D01*
X38902118Y-17153897D01*
X38892988Y-17149948D01*
X38758003Y-17087588D01*
X38674706Y-17036446D01*
X38639003Y-16990488D01*
X38646797Y-16943683D01*
X38693993Y-16889998D01*
X38708106Y-16877644D01*
X38802641Y-16829741D01*
X38900594Y-16831758D01*
X38985903Y-16878724D01*
X39042504Y-16965669D01*
X39047763Y-16982734D01*
X39098977Y-17065504D01*
X39163963Y-17105372D01*
X39257931Y-17144882D01*
X39257931Y-17042658D01*
X39229347Y-16894072D01*
X39144505Y-16757784D01*
X39100355Y-16712191D01*
X38999995Y-16653674D01*
X38872365Y-16627184D01*
X38740056Y-16634360D01*
X38740056Y-16634360D01*
G37*
X38740056Y-16634360D02*
X38625657Y-16676842D01*
X38624348Y-16677658D01*
X38553597Y-16729730D01*
X38501364Y-16790584D01*
X38464629Y-16869887D01*
X38440366Y-16977309D01*
X38425555Y-17122517D01*
X38417171Y-17315179D01*
X38416436Y-17342628D01*
X38405880Y-17756521D01*
X38494709Y-17802456D01*
X38558982Y-17833498D01*
X38597790Y-17848206D01*
X38599585Y-17848391D01*
X38606300Y-17821250D01*
X38611635Y-17748041D01*
X38614917Y-17641081D01*
X38615632Y-17554469D01*
X38615649Y-17414162D01*
X38622063Y-17326051D01*
X38644420Y-17284025D01*
X38692268Y-17281975D01*
X38775151Y-17313790D01*
X38900287Y-17372272D01*
X38992303Y-17420845D01*
X39039629Y-17462986D01*
X39053542Y-17508916D01*
X39053563Y-17511189D01*
X39030605Y-17590311D01*
X38962630Y-17633055D01*
X38858602Y-17639246D01*
X38783670Y-17638172D01*
X38744161Y-17659753D01*
X38719522Y-17711591D01*
X38705341Y-17777632D01*
X38725777Y-17815104D01*
X38733472Y-17820467D01*
X38805917Y-17842006D01*
X38907367Y-17845055D01*
X39011843Y-17830778D01*
X39085875Y-17804688D01*
X39188228Y-17717785D01*
X39246409Y-17596816D01*
X39257931Y-17502308D01*
X39249138Y-17417062D01*
X39217320Y-17347476D01*
X39154316Y-17285672D01*
X39051969Y-17223772D01*
X38902118Y-17153897D01*
X38892988Y-17149948D01*
X38758003Y-17087588D01*
X38674706Y-17036446D01*
X38639003Y-16990488D01*
X38646797Y-16943683D01*
X38693993Y-16889998D01*
X38708106Y-16877644D01*
X38802641Y-16829741D01*
X38900594Y-16831758D01*
X38985903Y-16878724D01*
X39042504Y-16965669D01*
X39047763Y-16982734D01*
X39098977Y-17065504D01*
X39163963Y-17105372D01*
X39257931Y-17144882D01*
X39257931Y-17042658D01*
X39229347Y-16894072D01*
X39144505Y-16757784D01*
X39100355Y-16712191D01*
X38999995Y-16653674D01*
X38872365Y-16627184D01*
X38740056Y-16634360D01*
G36*
X40075402Y-16433857D02*
G01*
X40066846Y-16553188D01*
X40057019Y-16623506D01*
X40043401Y-16654179D01*
X40023473Y-16654571D01*
X40017011Y-16650910D01*
X39931060Y-16624398D01*
X39819255Y-16625946D01*
X39705586Y-16653199D01*
X39634490Y-16688455D01*
X39561595Y-16744778D01*
X39508307Y-16808519D01*
X39471725Y-16889510D01*
X39448950Y-16997586D01*
X39437081Y-17142580D01*
X39433218Y-17334326D01*
X39433149Y-17371109D01*
X39433103Y-17784288D01*
X39525046Y-17816339D01*
X39590348Y-17838144D01*
X39626176Y-17848297D01*
X39627230Y-17848391D01*
X39630758Y-17820860D01*
X39633761Y-17744923D01*
X39636010Y-17630565D01*
X39637276Y-17487769D01*
X39637471Y-17400951D01*
X39637877Y-17229773D01*
X39639968Y-17107088D01*
X39645053Y-17023000D01*
X39654440Y-16967614D01*
X39669439Y-16931032D01*
X39691358Y-16903359D01*
X39705043Y-16890032D01*
X39799051Y-16836328D01*
X39901636Y-16832307D01*
X39994710Y-16877725D01*
X40011922Y-16894123D01*
X40037168Y-16924957D01*
X40054680Y-16961531D01*
X40065858Y-17014415D01*
X40072104Y-17094177D01*
X40074818Y-17211385D01*
X40075402Y-17372991D01*
X40075402Y-17784288D01*
X40167345Y-17816339D01*
X40232647Y-17838144D01*
X40268475Y-17848297D01*
X40269529Y-17848391D01*
X40272225Y-17820448D01*
X40274655Y-17741630D01*
X40276722Y-17619453D01*
X40278329Y-17461432D01*
X40279377Y-17275083D01*
X40279769Y-17067920D01*
X40279770Y-17058706D01*
X40279770Y-16269020D01*
X40184885Y-16228997D01*
X40090000Y-16188973D01*
X40075402Y-16433857D01*
X40075402Y-16433857D01*
G37*
X40075402Y-16433857D02*
X40066846Y-16553188D01*
X40057019Y-16623506D01*
X40043401Y-16654179D01*
X40023473Y-16654571D01*
X40017011Y-16650910D01*
X39931060Y-16624398D01*
X39819255Y-16625946D01*
X39705586Y-16653199D01*
X39634490Y-16688455D01*
X39561595Y-16744778D01*
X39508307Y-16808519D01*
X39471725Y-16889510D01*
X39448950Y-16997586D01*
X39437081Y-17142580D01*
X39433218Y-17334326D01*
X39433149Y-17371109D01*
X39433103Y-17784288D01*
X39525046Y-17816339D01*
X39590348Y-17838144D01*
X39626176Y-17848297D01*
X39627230Y-17848391D01*
X39630758Y-17820860D01*
X39633761Y-17744923D01*
X39636010Y-17630565D01*
X39637276Y-17487769D01*
X39637471Y-17400951D01*
X39637877Y-17229773D01*
X39639968Y-17107088D01*
X39645053Y-17023000D01*
X39654440Y-16967614D01*
X39669439Y-16931032D01*
X39691358Y-16903359D01*
X39705043Y-16890032D01*
X39799051Y-16836328D01*
X39901636Y-16832307D01*
X39994710Y-16877725D01*
X40011922Y-16894123D01*
X40037168Y-16924957D01*
X40054680Y-16961531D01*
X40065858Y-17014415D01*
X40072104Y-17094177D01*
X40074818Y-17211385D01*
X40075402Y-17372991D01*
X40075402Y-17784288D01*
X40167345Y-17816339D01*
X40232647Y-17838144D01*
X40268475Y-17848297D01*
X40269529Y-17848391D01*
X40272225Y-17820448D01*
X40274655Y-17741630D01*
X40276722Y-17619453D01*
X40278329Y-17461432D01*
X40279377Y-17275083D01*
X40279769Y-17067920D01*
X40279770Y-17058706D01*
X40279770Y-16269020D01*
X40184885Y-16228997D01*
X40090000Y-16188973D01*
X40075402Y-16433857D01*
G36*
X42504448Y-16594676D02*
G01*
X42389342Y-16672111D01*
X42300389Y-16783949D01*
X42247251Y-16926265D01*
X42236503Y-17031015D01*
X42237724Y-17074726D01*
X42247944Y-17108194D01*
X42276039Y-17138179D01*
X42330884Y-17171440D01*
X42421355Y-17214738D01*
X42556328Y-17274833D01*
X42557011Y-17275134D01*
X42681249Y-17332037D01*
X42783127Y-17382565D01*
X42852233Y-17421280D01*
X42878154Y-17442740D01*
X42878161Y-17442913D01*
X42855315Y-17489644D01*
X42801891Y-17541154D01*
X42740558Y-17578261D01*
X42709485Y-17585632D01*
X42624711Y-17560138D01*
X42551707Y-17496291D01*
X42516087Y-17426094D01*
X42481820Y-17374343D01*
X42414697Y-17315409D01*
X42335792Y-17264496D01*
X42266179Y-17236809D01*
X42251623Y-17235287D01*
X42235237Y-17260321D01*
X42234250Y-17324311D01*
X42246292Y-17410593D01*
X42268993Y-17502501D01*
X42299986Y-17583369D01*
X42301552Y-17586509D01*
X42394819Y-17716734D01*
X42515696Y-17805311D01*
X42652973Y-17848786D01*
X42795440Y-17843706D01*
X42931888Y-17786616D01*
X42937955Y-17782602D01*
X43045290Y-17685326D01*
X43115868Y-17558409D01*
X43154926Y-17391526D01*
X43160168Y-17344639D01*
X43169452Y-17123329D01*
X43158322Y-17020124D01*
X42878161Y-17020124D01*
X42874521Y-17084503D01*
X42854611Y-17103291D01*
X42804974Y-17089235D01*
X42726733Y-17056009D01*
X42639274Y-17014359D01*
X42637101Y-17013256D01*
X42562970Y-16974265D01*
X42533219Y-16948244D01*
X42540555Y-16920965D01*
X42571447Y-16885121D01*
X42650040Y-16833251D01*
X42734677Y-16829439D01*
X42810597Y-16867189D01*
X42863035Y-16940001D01*
X42878161Y-17020124D01*
X43158322Y-17020124D01*
X43150356Y-16946261D01*
X43101366Y-16805829D01*
X43033164Y-16707447D01*
X42910065Y-16608030D01*
X42774472Y-16558711D01*
X42636045Y-16555568D01*
X42504448Y-16594676D01*
X42504448Y-16594676D01*
G37*
X42504448Y-16594676D02*
X42389342Y-16672111D01*
X42300389Y-16783949D01*
X42247251Y-16926265D01*
X42236503Y-17031015D01*
X42237724Y-17074726D01*
X42247944Y-17108194D01*
X42276039Y-17138179D01*
X42330884Y-17171440D01*
X42421355Y-17214738D01*
X42556328Y-17274833D01*
X42557011Y-17275134D01*
X42681249Y-17332037D01*
X42783127Y-17382565D01*
X42852233Y-17421280D01*
X42878154Y-17442740D01*
X42878161Y-17442913D01*
X42855315Y-17489644D01*
X42801891Y-17541154D01*
X42740558Y-17578261D01*
X42709485Y-17585632D01*
X42624711Y-17560138D01*
X42551707Y-17496291D01*
X42516087Y-17426094D01*
X42481820Y-17374343D01*
X42414697Y-17315409D01*
X42335792Y-17264496D01*
X42266179Y-17236809D01*
X42251623Y-17235287D01*
X42235237Y-17260321D01*
X42234250Y-17324311D01*
X42246292Y-17410593D01*
X42268993Y-17502501D01*
X42299986Y-17583369D01*
X42301552Y-17586509D01*
X42394819Y-17716734D01*
X42515696Y-17805311D01*
X42652973Y-17848786D01*
X42795440Y-17843706D01*
X42931888Y-17786616D01*
X42937955Y-17782602D01*
X43045290Y-17685326D01*
X43115868Y-17558409D01*
X43154926Y-17391526D01*
X43160168Y-17344639D01*
X43169452Y-17123329D01*
X43158322Y-17020124D01*
X42878161Y-17020124D01*
X42874521Y-17084503D01*
X42854611Y-17103291D01*
X42804974Y-17089235D01*
X42726733Y-17056009D01*
X42639274Y-17014359D01*
X42637101Y-17013256D01*
X42562970Y-16974265D01*
X42533219Y-16948244D01*
X42540555Y-16920965D01*
X42571447Y-16885121D01*
X42650040Y-16833251D01*
X42734677Y-16829439D01*
X42810597Y-16867189D01*
X42863035Y-16940001D01*
X42878161Y-17020124D01*
X43158322Y-17020124D01*
X43150356Y-16946261D01*
X43101366Y-16805829D01*
X43033164Y-16707447D01*
X42910065Y-16608030D01*
X42774472Y-16558711D01*
X42636045Y-16555568D01*
X42504448Y-16594676D01*
G36*
X44771779Y-16576015D02*
G01*
X44634939Y-16647968D01*
X44533949Y-16763766D01*
X44498075Y-16838213D01*
X44470161Y-16949992D01*
X44455871Y-17091227D01*
X44454516Y-17245371D01*
X44465405Y-17395879D01*
X44487847Y-17526205D01*
X44521150Y-17619803D01*
X44531385Y-17635922D01*
X44652618Y-17756249D01*
X44796613Y-17828317D01*
X44952861Y-17849408D01*
X45110852Y-17816802D01*
X45154820Y-17797253D01*
X45240444Y-17737012D01*
X45315592Y-17657135D01*
X45322694Y-17647004D01*
X45351561Y-17598181D01*
X45370643Y-17545990D01*
X45381916Y-17477285D01*
X45387355Y-17378918D01*
X45388938Y-17237744D01*
X45388965Y-17206092D01*
X45388893Y-17196019D01*
X45097011Y-17196019D01*
X45095313Y-17329256D01*
X45088628Y-17417674D01*
X45074575Y-17474785D01*
X45050771Y-17514102D01*
X45038621Y-17527241D01*
X44968764Y-17577172D01*
X44900941Y-17574895D01*
X44832365Y-17531584D01*
X44791465Y-17485346D01*
X44767242Y-17417857D01*
X44753639Y-17311433D01*
X44752706Y-17299020D01*
X44750384Y-17106147D01*
X44774650Y-16962900D01*
X44825176Y-16870160D01*
X44901632Y-16828807D01*
X44928924Y-16826552D01*
X45000589Y-16837893D01*
X45049610Y-16877184D01*
X45079582Y-16952326D01*
X45094101Y-17071222D01*
X45097011Y-17196019D01*
X45388893Y-17196019D01*
X45387878Y-17055659D01*
X45383312Y-16950549D01*
X45373312Y-16877714D01*
X45355921Y-16824108D01*
X45329184Y-16776681D01*
X45323276Y-16767864D01*
X45223968Y-16649007D01*
X45115758Y-16580008D01*
X44984019Y-16552619D01*
X44939283Y-16551281D01*
X44771779Y-16576015D01*
X44771779Y-16576015D01*
G37*
X44771779Y-16576015D02*
X44634939Y-16647968D01*
X44533949Y-16763766D01*
X44498075Y-16838213D01*
X44470161Y-16949992D01*
X44455871Y-17091227D01*
X44454516Y-17245371D01*
X44465405Y-17395879D01*
X44487847Y-17526205D01*
X44521150Y-17619803D01*
X44531385Y-17635922D01*
X44652618Y-17756249D01*
X44796613Y-17828317D01*
X44952861Y-17849408D01*
X45110852Y-17816802D01*
X45154820Y-17797253D01*
X45240444Y-17737012D01*
X45315592Y-17657135D01*
X45322694Y-17647004D01*
X45351561Y-17598181D01*
X45370643Y-17545990D01*
X45381916Y-17477285D01*
X45387355Y-17378918D01*
X45388938Y-17237744D01*
X45388965Y-17206092D01*
X45388893Y-17196019D01*
X45097011Y-17196019D01*
X45095313Y-17329256D01*
X45088628Y-17417674D01*
X45074575Y-17474785D01*
X45050771Y-17514102D01*
X45038621Y-17527241D01*
X44968764Y-17577172D01*
X44900941Y-17574895D01*
X44832365Y-17531584D01*
X44791465Y-17485346D01*
X44767242Y-17417857D01*
X44753639Y-17311433D01*
X44752706Y-17299020D01*
X44750384Y-17106147D01*
X44774650Y-16962900D01*
X44825176Y-16870160D01*
X44901632Y-16828807D01*
X44928924Y-16826552D01*
X45000589Y-16837893D01*
X45049610Y-16877184D01*
X45079582Y-16952326D01*
X45094101Y-17071222D01*
X45097011Y-17196019D01*
X45388893Y-17196019D01*
X45387878Y-17055659D01*
X45383312Y-16950549D01*
X45373312Y-16877714D01*
X45355921Y-16824108D01*
X45329184Y-16776681D01*
X45323276Y-16767864D01*
X45223968Y-16649007D01*
X45115758Y-16580008D01*
X44984019Y-16552619D01*
X44939283Y-16551281D01*
X44771779Y-16576015D01*
G36*
X41402571Y-16587719D02*
G01*
X41308877Y-16641914D01*
X41243736Y-16695707D01*
X41196093Y-16752066D01*
X41163272Y-16820987D01*
X41142594Y-16912468D01*
X41131380Y-17036506D01*
X41126951Y-17203098D01*
X41126437Y-17322851D01*
X41126437Y-17763659D01*
X41250517Y-17819283D01*
X41374598Y-17874907D01*
X41389195Y-17392095D01*
X41395227Y-17211779D01*
X41401555Y-17080901D01*
X41409394Y-16990511D01*
X41419963Y-16931664D01*
X41434477Y-16895413D01*
X41454152Y-16872810D01*
X41460465Y-16867917D01*
X41556112Y-16829706D01*
X41652793Y-16844827D01*
X41710345Y-16884943D01*
X41733755Y-16913370D01*
X41749961Y-16950672D01*
X41760259Y-17007223D01*
X41765951Y-17093394D01*
X41768336Y-17219558D01*
X41768736Y-17351042D01*
X41768814Y-17515999D01*
X41771639Y-17632761D01*
X41781093Y-17711510D01*
X41801060Y-17762431D01*
X41835424Y-17795706D01*
X41888068Y-17821520D01*
X41958383Y-17848344D01*
X42035180Y-17877542D01*
X42026038Y-17359346D01*
X42022357Y-17172539D01*
X42018050Y-17034490D01*
X42011877Y-16935568D01*
X42002598Y-16866145D01*
X41988973Y-16816590D01*
X41969761Y-16777273D01*
X41946598Y-16742584D01*
X41834848Y-16631770D01*
X41698487Y-16567689D01*
X41550175Y-16552339D01*
X41402571Y-16587719D01*
X41402571Y-16587719D01*
G37*
X41402571Y-16587719D02*
X41308877Y-16641914D01*
X41243736Y-16695707D01*
X41196093Y-16752066D01*
X41163272Y-16820987D01*
X41142594Y-16912468D01*
X41131380Y-17036506D01*
X41126951Y-17203098D01*
X41126437Y-17322851D01*
X41126437Y-17763659D01*
X41250517Y-17819283D01*
X41374598Y-17874907D01*
X41389195Y-17392095D01*
X41395227Y-17211779D01*
X41401555Y-17080901D01*
X41409394Y-16990511D01*
X41419963Y-16931664D01*
X41434477Y-16895413D01*
X41454152Y-16872810D01*
X41460465Y-16867917D01*
X41556112Y-16829706D01*
X41652793Y-16844827D01*
X41710345Y-16884943D01*
X41733755Y-16913370D01*
X41749961Y-16950672D01*
X41760259Y-17007223D01*
X41765951Y-17093394D01*
X41768336Y-17219558D01*
X41768736Y-17351042D01*
X41768814Y-17515999D01*
X41771639Y-17632761D01*
X41781093Y-17711510D01*
X41801060Y-17762431D01*
X41835424Y-17795706D01*
X41888068Y-17821520D01*
X41958383Y-17848344D01*
X42035180Y-17877542D01*
X42026038Y-17359346D01*
X42022357Y-17172539D01*
X42018050Y-17034490D01*
X42011877Y-16935568D01*
X42002598Y-16866145D01*
X41988973Y-16816590D01*
X41969761Y-16777273D01*
X41946598Y-16742584D01*
X41834848Y-16631770D01*
X41698487Y-16567689D01*
X41550175Y-16552339D01*
X41402571Y-16587719D01*
G36*
X43648100Y-16571903D02*
G01*
X43536550Y-16627522D01*
X43438092Y-16729931D01*
X43410977Y-16767864D01*
X43381438Y-16817500D01*
X43362272Y-16871412D01*
X43351307Y-16943364D01*
X43346371Y-17047122D01*
X43345287Y-17184101D01*
X43350182Y-17371815D01*
X43367196Y-17512758D01*
X43399823Y-17617908D01*
X43451558Y-17698243D01*
X43525896Y-17764741D01*
X43531358Y-17768678D01*
X43604620Y-17808953D01*
X43692840Y-17828880D01*
X43805038Y-17833793D01*
X43987433Y-17833793D01*
X43987509Y-18010857D01*
X43989207Y-18109470D01*
X43999550Y-18167314D01*
X44026578Y-18202006D01*
X44078332Y-18231164D01*
X44090761Y-18237121D01*
X44148923Y-18265039D01*
X44193956Y-18282672D01*
X44227441Y-18284194D01*
X44250962Y-18263781D01*
X44266100Y-18215607D01*
X44274437Y-18133846D01*
X44277556Y-18012672D01*
X44277040Y-17846260D01*
X44274471Y-17628785D01*
X44273668Y-17563736D01*
X44270778Y-17339502D01*
X44268188Y-17192821D01*
X43987586Y-17192821D01*
X43986009Y-17317326D01*
X43979000Y-17398787D01*
X43963142Y-17452515D01*
X43935019Y-17493823D01*
X43915925Y-17513971D01*
X43837865Y-17572921D01*
X43768753Y-17577720D01*
X43697440Y-17529038D01*
X43695632Y-17527241D01*
X43666617Y-17489618D01*
X43648967Y-17438484D01*
X43640064Y-17359738D01*
X43637291Y-17239276D01*
X43637241Y-17212588D01*
X43643942Y-17046583D01*
X43665752Y-16931505D01*
X43705235Y-16861254D01*
X43764956Y-16829729D01*
X43799472Y-16826552D01*
X43881389Y-16841460D01*
X43937579Y-16890548D01*
X43971402Y-16980362D01*
X43986220Y-17117445D01*
X43987586Y-17192821D01*
X44268188Y-17192821D01*
X44267713Y-17165952D01*
X44263753Y-17035382D01*
X44258174Y-16940087D01*
X44250254Y-16872364D01*
X44239269Y-16824507D01*
X44224499Y-16788813D01*
X44205218Y-16757578D01*
X44196951Y-16745824D01*
X44087288Y-16634797D01*
X43948635Y-16571847D01*
X43788246Y-16554297D01*
X43648100Y-16571903D01*
X43648100Y-16571903D01*
G37*
X43648100Y-16571903D02*
X43536550Y-16627522D01*
X43438092Y-16729931D01*
X43410977Y-16767864D01*
X43381438Y-16817500D01*
X43362272Y-16871412D01*
X43351307Y-16943364D01*
X43346371Y-17047122D01*
X43345287Y-17184101D01*
X43350182Y-17371815D01*
X43367196Y-17512758D01*
X43399823Y-17617908D01*
X43451558Y-17698243D01*
X43525896Y-17764741D01*
X43531358Y-17768678D01*
X43604620Y-17808953D01*
X43692840Y-17828880D01*
X43805038Y-17833793D01*
X43987433Y-17833793D01*
X43987509Y-18010857D01*
X43989207Y-18109470D01*
X43999550Y-18167314D01*
X44026578Y-18202006D01*
X44078332Y-18231164D01*
X44090761Y-18237121D01*
X44148923Y-18265039D01*
X44193956Y-18282672D01*
X44227441Y-18284194D01*
X44250962Y-18263781D01*
X44266100Y-18215607D01*
X44274437Y-18133846D01*
X44277556Y-18012672D01*
X44277040Y-17846260D01*
X44274471Y-17628785D01*
X44273668Y-17563736D01*
X44270778Y-17339502D01*
X44268188Y-17192821D01*
X43987586Y-17192821D01*
X43986009Y-17317326D01*
X43979000Y-17398787D01*
X43963142Y-17452515D01*
X43935019Y-17493823D01*
X43915925Y-17513971D01*
X43837865Y-17572921D01*
X43768753Y-17577720D01*
X43697440Y-17529038D01*
X43695632Y-17527241D01*
X43666617Y-17489618D01*
X43648967Y-17438484D01*
X43640064Y-17359738D01*
X43637291Y-17239276D01*
X43637241Y-17212588D01*
X43643942Y-17046583D01*
X43665752Y-16931505D01*
X43705235Y-16861254D01*
X43764956Y-16829729D01*
X43799472Y-16826552D01*
X43881389Y-16841460D01*
X43937579Y-16890548D01*
X43971402Y-16980362D01*
X43986220Y-17117445D01*
X43987586Y-17192821D01*
X44268188Y-17192821D01*
X44267713Y-17165952D01*
X44263753Y-17035382D01*
X44258174Y-16940087D01*
X44250254Y-16872364D01*
X44239269Y-16824507D01*
X44224499Y-16788813D01*
X44205218Y-16757578D01*
X44196951Y-16745824D01*
X44087288Y-16634797D01*
X43948635Y-16571847D01*
X43788246Y-16554297D01*
X43648100Y-16571903D01*
D12*
X-16570000Y8890000D02*
X-16570000Y7560000D01*
X-16570000Y7560000D02*
X-15240000Y7560000D01*
X-16570000Y10160000D02*
X-13970000Y10160000D01*
X-13970000Y10160000D02*
X-13970000Y7560000D01*
X-13970000Y7560000D02*
X34350000Y7560000D01*
X34350000Y12760000D02*
X34350000Y7560000D01*
X-16570000Y12760000D02*
X34350000Y12760000D01*
X-16570000Y12760000D02*
X-16570000Y10160000D01*
D13*
X-18557619Y10493333D02*
X-17843333Y10493333D01*
X-17700476Y10540952D01*
X-17605238Y10636190D01*
X-17557619Y10779047D01*
X-17557619Y10874285D01*
X-18462380Y10064761D02*
X-18510000Y10017142D01*
X-18557619Y9921904D01*
X-18557619Y9683809D01*
X-18510000Y9588571D01*
X-18462380Y9540952D01*
X-18367142Y9493333D01*
X-18271904Y9493333D01*
X-18129047Y9540952D01*
X-17557619Y10112380D01*
X-17557619Y9493333D01*
M02*
