M48
; DRILL file {KiCad (5.1.4-0)} date Friday, September 27, 2019 at 08:09:18 PM
; FORMAT={-:-/ absolute / metric / decimal}
; #@! TF.CreationDate,2019-09-27T20:09:18-04:00
; #@! TF.GenerationSoftware,Kicad,Pcbnew,(5.1.4-0)
; #@! TF.FileFunction,Plated,1,2,PTH
FMAT,2
METRIC
T1C0.900
T2C0.950
T3C1.000
T4C1.100
T5C1.300
T6C1.600
%
G90
G05
T1
X-7.5Y2.31
X-5.51Y2.35
X-3.45Y2.32
X-1.41Y2.32
T2
X7.036Y1.813
X9.536Y1.813
X12.036Y1.813
X14.536Y1.813
X17.036Y1.813
X19.536Y1.813
X22.036Y1.813
X24.536Y1.813
T3
X41.999Y-4.356
X44.539Y-4.356
X47.079Y-4.356
X49.619Y-4.356
X52.159Y-4.356
X54.699Y-4.356
X-14.56Y-1.69
X-14.56Y-4.19
X-15.24Y11.43
X-15.24Y8.89
X-12.7Y11.43
X-12.7Y8.89
X-10.16Y11.43
X-10.16Y8.89
X-7.62Y11.43
X-7.62Y8.89
X-5.08Y11.43
X-5.08Y8.89
X-2.54Y11.43
X-2.54Y8.89
X0.0Y11.43
X0.0Y8.89
X2.54Y11.43
X2.54Y8.89
X5.08Y11.43
X5.08Y8.89
X7.62Y11.43
X7.62Y8.89
X10.16Y11.43
X10.16Y8.89
X12.7Y11.43
X12.7Y8.89
X15.24Y11.43
X15.24Y8.89
X17.78Y11.43
X17.78Y8.89
X20.32Y11.43
X20.32Y8.89
X22.86Y11.43
X22.86Y8.89
X25.4Y11.43
X25.4Y8.89
X27.94Y11.43
X27.94Y8.89
X30.48Y11.43
X30.48Y8.89
X33.02Y11.43
X33.02Y8.89
X45.45Y8.87
X45.45Y6.37
T4
X-21.05Y4.34
X-10.89Y4.34
T5
X22.272Y-8.46
X22.272Y-13.54
X22.272Y-26.24
X22.272Y-36.4
X9.477Y-8.6
X9.477Y-18.76
X9.477Y-31.46
X9.477Y-36.54
X0.86Y-8.46
X0.86Y-13.54
X0.86Y-26.24
X0.86Y-36.4
T6
X-12.58Y-11.074
X-12.58Y-16.154
X-12.58Y-21.234
X-12.58Y-26.314
X-12.58Y-31.394
T0
M30
