G04 #@! TF.GenerationSoftware,KiCad,Pcbnew,(5.1.4-0)*
G04 #@! TF.CreationDate,2019-09-27T20:11:36-04:00*
G04 #@! TF.ProjectId,Pi_HAT_MACHINECLIENT,50695f48-4154-45f4-9d41-4348494e4543,rev?*
G04 #@! TF.SameCoordinates,Original*
G04 #@! TF.FileFunction,Profile,NP*
%FSLAX46Y46*%
G04 Gerber Fmt 4.6, Leading zero omitted, Abs format (unit mm)*
G04 Created by KiCad (PCBNEW (5.1.4-0)) date 2019-09-27 20:11:36*
%MOMM*%
%LPD*%
G04 APERTURE LIST*
%ADD10C,0.200000*%
G04 APERTURE END LIST*
D10*
X61388983Y10659972D02*
X61382779Y10854413D01*
X61382779Y10854413D02*
X61365325Y11038517D01*
X61365325Y11038517D02*
X61337704Y11215192D01*
X61337704Y11215192D02*
X61301637Y11381543D01*
X61301637Y11381543D02*
X61257866Y11539914D01*
X61257866Y11539914D02*
X61207362Y11690347D01*
X61207362Y11690347D02*
X61150137Y11835012D01*
X61150137Y11835012D02*
X61086738Y11973844D01*
X61086738Y11973844D02*
X61017692Y12106799D01*
X61017692Y12106799D02*
X60943792Y12233363D01*
X60943792Y12233363D02*
X60863349Y12356829D01*
X60863349Y12356829D02*
X60777449Y12475551D01*
X60777449Y12475551D02*
X60688527Y12586799D01*
X60688527Y12586799D02*
X60593764Y12694471D01*
X60593764Y12694471D02*
X60492026Y12799455D01*
X60492026Y12799455D02*
X60383633Y12900894D01*
X60383633Y12900894D02*
X60273823Y12994101D01*
X60273823Y12994101D02*
X60159576Y13082036D01*
X60159576Y13082036D02*
X60041549Y13164201D01*
X60041549Y13164201D02*
X59916572Y13242496D01*
X59916572Y13242496D02*
X59782052Y13317629D01*
X59782052Y13317629D02*
X59645454Y13384988D01*
X59645454Y13384988D02*
X59505055Y13445515D01*
X59505055Y13445515D02*
X59358342Y13499916D01*
X59358342Y13499916D02*
X59204796Y13547716D01*
X59204796Y13547716D02*
X59043290Y13588406D01*
X59043290Y13588406D02*
X58874965Y13620803D01*
X58874965Y13620803D02*
X58689850Y13645063D01*
X58689850Y13645063D02*
X58501366Y13657893D01*
X58501366Y13657893D02*
X58388994Y13659961D01*
X61388983Y-39339215D02*
X61388983Y10659972D01*
X58388994Y-42339204D02*
X58582876Y-42333035D01*
X58582876Y-42333035D02*
X58767606Y-42315534D01*
X58767606Y-42315534D02*
X58944307Y-42287900D01*
X58944307Y-42287900D02*
X59108984Y-42252235D01*
X59108984Y-42252235D02*
X59269063Y-42208030D01*
X59269063Y-42208030D02*
X59419507Y-42157506D01*
X59419507Y-42157506D02*
X59564180Y-42100260D01*
X59564180Y-42100260D02*
X59703015Y-42036840D01*
X59703015Y-42036840D02*
X59835974Y-41967772D01*
X59835974Y-41967772D02*
X59963020Y-41893553D01*
X59963020Y-41893553D02*
X60089718Y-41810827D01*
X60089718Y-41810827D02*
X60208302Y-41724733D01*
X60208302Y-41724733D02*
X60322422Y-41633091D01*
X60322422Y-41633091D02*
X60428581Y-41539159D01*
X60428581Y-41539159D02*
X60530181Y-41440381D01*
X60530181Y-41440381D02*
X60631530Y-41331897D01*
X60631530Y-41331897D02*
X60726061Y-41220253D01*
X60726061Y-41220253D02*
X60819123Y-41098567D01*
X60819123Y-41098567D02*
X60904771Y-40974001D01*
X60904771Y-40974001D02*
X60981920Y-40848930D01*
X60981920Y-40848930D02*
X61053021Y-40719898D01*
X61053021Y-40719898D02*
X61118820Y-40585031D01*
X61118820Y-40585031D02*
X61180500Y-40440112D01*
X61180500Y-40440112D02*
X61234676Y-40291414D01*
X61234676Y-40291414D02*
X61281730Y-40136941D01*
X61281730Y-40136941D02*
X61321561Y-39974517D01*
X61321561Y-39974517D02*
X61353793Y-39800047D01*
X61353793Y-39800047D02*
X61375912Y-39621026D01*
X61375912Y-39621026D02*
X61387563Y-39432288D01*
X61387563Y-39432288D02*
X61388983Y-39339215D01*
X-23609618Y-39339215D02*
X-23603412Y-39533618D01*
X-23603412Y-39533618D02*
X-23585954Y-39717692D01*
X-23585954Y-39717692D02*
X-23558756Y-39892042D01*
X-23558756Y-39892042D02*
X-23522808Y-40058418D01*
X-23522808Y-40058418D02*
X-23478474Y-40219030D01*
X-23478474Y-40219030D02*
X-23427959Y-40369453D01*
X-23427959Y-40369453D02*
X-23370723Y-40514110D01*
X-23370723Y-40514110D02*
X-23307313Y-40652937D01*
X-23307313Y-40652937D02*
X-23238257Y-40785889D01*
X-23238257Y-40785889D02*
X-23164049Y-40912936D01*
X-23164049Y-40912936D02*
X-23078771Y-41043352D01*
X-23078771Y-41043352D02*
X-22994224Y-41159573D01*
X-22994224Y-41159573D02*
X-22903618Y-41272360D01*
X-22903618Y-41272360D02*
X-22809695Y-41378532D01*
X-22809695Y-41378532D02*
X-22710926Y-41480147D01*
X-22710926Y-41480147D02*
X-22602869Y-41581140D01*
X-22602869Y-41581140D02*
X-22494314Y-41673234D01*
X-22494314Y-41673234D02*
X-22380062Y-41761180D01*
X-22380062Y-41761180D02*
X-22262032Y-41843355D01*
X-22262032Y-41843355D02*
X-22137054Y-41921661D01*
X-22137054Y-41921661D02*
X-22002535Y-41996804D01*
X-22002535Y-41996804D02*
X-21865941Y-42064175D01*
X-21865941Y-42064175D02*
X-21725547Y-42124713D01*
X-21725547Y-42124713D02*
X-21578843Y-42179125D01*
X-21578843Y-42179125D02*
X-21425310Y-42226934D01*
X-21425310Y-42226934D02*
X-21263821Y-42267633D01*
X-21263821Y-42267633D02*
X-21095517Y-42300035D01*
X-21095517Y-42300035D02*
X-20911020Y-42324242D01*
X-20911020Y-42324242D02*
X-20722579Y-42337112D01*
X-20722579Y-42337112D02*
X-20609629Y-42339204D01*
X-23609618Y10659972D02*
X-23609618Y-39339215D01*
X-20609629Y13659961D02*
X-20804070Y13653755D01*
X-20804070Y13653755D02*
X-20988174Y13636297D01*
X-20988174Y13636297D02*
X-21164849Y13608670D01*
X-21164849Y13608670D02*
X-21331200Y13572596D01*
X-21331200Y13572596D02*
X-21489571Y13528817D01*
X-21489571Y13528817D02*
X-21640004Y13478302D01*
X-21640004Y13478302D02*
X-21784669Y13421066D01*
X-21784669Y13421066D02*
X-21923501Y13357656D01*
X-21923501Y13357656D02*
X-22056456Y13288600D01*
X-22056456Y13288600D02*
X-22183502Y13214392D01*
X-22183502Y13214392D02*
X-22313917Y13129114D01*
X-22313917Y13129114D02*
X-22430134Y13044567D01*
X-22430134Y13044567D02*
X-22542916Y12953961D01*
X-22542916Y12953961D02*
X-22649081Y12860038D01*
X-22649081Y12860038D02*
X-22750688Y12761269D01*
X-22750688Y12761269D02*
X-22851673Y12653212D01*
X-22851673Y12653212D02*
X-22943758Y12544657D01*
X-22943758Y12544657D02*
X-23031693Y12430405D01*
X-23031693Y12430405D02*
X-23113858Y12312375D01*
X-23113858Y12312375D02*
X-23192153Y12187397D01*
X-23192153Y12187397D02*
X-23267286Y12052878D01*
X-23267286Y12052878D02*
X-23334645Y11916284D01*
X-23334645Y11916284D02*
X-23395172Y11775890D01*
X-23395172Y11775890D02*
X-23449573Y11629186D01*
X-23449573Y11629186D02*
X-23497373Y11475653D01*
X-23497373Y11475653D02*
X-23538063Y11314164D01*
X-23538063Y11314164D02*
X-23570460Y11145860D01*
X-23570460Y11145860D02*
X-23594660Y10961363D01*
X-23594660Y10961363D02*
X-23607527Y10772922D01*
X-23607527Y10772922D02*
X-23609618Y10659972D01*
X58388994Y13659961D02*
X-20609629Y13659961D01*
X-20609629Y13659961D02*
X-20609629Y13659961D01*
X-20609629Y-42339204D02*
X58388994Y-42339204D01*
X58388994Y-42339204D02*
X58388994Y-42339204D01*
M02*
